Coordinates
version=1
nRows=16
nColumns=30
inDegrees=yes

Units are S.I. units (second, meters, Newtons, ...)
Angles are in degrees.

endheader
time	floatyaw	floatroll	floatpitch	floatx	floaty	floatz	pro_sup_l	deviation_l	flexion_l	cmc_flexion_l	cmc_abduction_l	mp_flexion_l	ip_flexion_l	2mcp_flexion_l	2mcp_abduction_l	2pm_flexion_l	2md_flexion_l	3mcp_flexion_l	3mcp_abduction_l	3pm_flexion_l	3md_flexion_l	4mcp_flexion_l	4mcp_abduction_l	4pm_flexion_l	4md_flexion_l	5mcp_flexion_l	5mcp_abduction_l	5pm_flexion_l	5md_flexion_l
-1.495000	-2.172711	-3.701800	97.553456	-0.100757	-0.188398	-0.033143	86.395424	2.831236	-1.325761	12.818519	8.771447	-22.471845	-34.808881	38.866209	10.330423	46.647814	32.644814	22.704236	5.358095	45.659851	31.635286	11.705411	-4.613505	60.771640	41.815274	6.382266	-10.759658	60.271482	42.101076
-1.485000	-2.172711	-3.701800	97.553456	-0.100745	-0.188441	-0.033170	86.361332	2.829284	-1.354138	12.812137	8.781417	-22.473626	-34.809040	38.924130	10.329496	46.637784	32.639923	22.742466	5.351804	45.703332	31.657332	11.724636	-4.608792	60.805513	41.837337	6.387241	-10.745229	60.337017	42.122782
-1.475000	-2.172711	-3.701800	97.553456	-0.100735	-0.188479	-0.033196	86.335007	2.833702	-1.381223	12.807920	8.772959	-22.482583	-34.813776	38.975238	10.325937	46.623963	32.632108	22.780326	5.342911	45.731620	31.670429	11.741323	-4.606107	60.841300	41.859754	6.378475	-10.718947	60.413844	42.147940
-1.465000	-2.172711	-3.701800	97.553456	-0.100729	-0.188509	-0.033221	86.315002	2.841973	-1.401803	12.803223	8.750953	-22.497597	-34.822108	39.008653	10.321325	46.610343	32.623874	22.810514	5.333914	45.744111	31.675764	11.751524	-4.605930	60.873420	41.880665	6.355278	-10.686436	60.486761	42.170630
-1.455000	-2.172711	-3.701800	97.553456	-0.100728	-0.188529	-0.033241	86.296542	2.849763	-1.413742	12.795518	8.725980	-22.515264	-34.832175	39.021412	10.316577	46.601161	32.617675	22.829052	5.327209	45.744894	31.676381	11.754889	-4.607574	60.897096	41.898046	6.321512	-10.654747	60.541562	42.185692
-1.445000	-2.172711	-3.701800	97.553456	-0.100727	-0.188543	-0.033257	86.273696	2.852937	-1.418722	12.783127	8.708622	-22.531699	-34.842034	39.018778	10.311420	46.600071	32.615372	22.836106	5.324418	45.740620	31.675822	11.754724	-4.609958	60.910203	41.910467	6.283545	-10.629299	60.570762	42.190844
-1.435000	-2.172711	-3.701800	97.553456	-0.100726	-0.188555	-0.033269	86.242615	2.849772	-1.420942	12.765691	8.703930	-22.544563	-34.850474	39.010572	10.304743	46.608963	32.617899	22.834943	5.326034	45.737567	31.676774	11.755938	-4.612344	60.913958	41.917697	6.247626	-10.611908	60.576647	42.187604
-1.425000	-2.172711	-3.701800	97.553456	-0.100724	-0.188570	-0.033280	86.204089	2.842139	-1.424609	12.744246	8.709173	-22.554041	-34.857344	39.005848	10.295478	46.626980	32.625073	22.829966	5.331346	45.739222	31.680226	11.762032	-4.614571	60.912223	41.920879	6.217576	-10.600753	60.569992	42.180535
-1.415000	-2.172711	-3.701800	97.553456	-0.100719	-0.188588	-0.033294	86.163688	2.834844	-1.431871	12.720820	8.715963	-22.562185	-34.863273	39.009252	10.283359	46.650148	32.635344	22.825229	5.338603	45.745182	31.685293	11.773045	-4.616795	60.909857	41.922198	6.193334	-10.591863	60.565114	42.175319
-1.405000	-2.172711	-3.701800	97.553456	-0.100714	-0.188609	-0.033312	86.129166	2.833265	-1.442353	12.697703	8.715121	-22.571084	-34.868970	39.020759	10.269063	46.672030	32.645674	22.824079	5.345482	45.751687	31.689720	11.785738	-4.619089	60.910845	41.924196	6.170961	-10.581031	60.573828	42.176626
-1.395000	-2.172711	-3.701800	97.553456	-0.100709	-0.188627	-0.033333	86.106591	2.840494	-1.454185	12.676713	8.701269	-22.581070	-34.874516	39.037878	10.253758	46.685649	32.652101	22.829214	5.349901	45.753524	31.691020	11.795778	-4.621229	60.916885	41.928973	6.144707	-10.565490	60.601118	42.186649
-1.385000	-2.172711	-3.701800	97.553456	-0.100705	-0.188640	-0.033355	86.097480	2.855629	-1.465479	12.658714	8.674911	-22.590044	-34.878964	39.058052	10.238503	46.686265	32.651238	22.842076	5.351004	45.746690	31.688001	11.800408	-4.622763	60.927004	41.937570	6.110814	-10.545110	60.644152	42.204635
-1.375000	-2.172711	-3.701800	97.553456	-0.100703	-0.188648	-0.033374	86.098443	2.874190	-1.475219	12.643449	8.641656	-22.594305	-34.880457	39.079764	10.224017	46.673739	32.642121	22.861586	5.349841	45.730817	31.682037	11.800066	-4.623288	60.938360	41.949718	6.071115	-10.522698	60.694548	42.227406
-1.365000	-2.172711	-3.701800	97.553456	-0.100702	-0.188652	-0.033386	86.103294	2.890315	-1.483257	12.629752	8.609556	-22.590388	-34.876872	39.102283	10.210937	46.653049	32.627200	22.883547	5.349178	45.710152	31.677156	11.798256	-4.622885	60.947931	41.964031	6.033634	-10.502838	60.742547	42.250607
-1.355000	-2.172711	-3.701800	97.553456	-0.100700	-0.188654	-0.033391	86.106154	2.899377	-1.489848	12.616128	8.585900	-22.576932	-34.866811	39.124879	10.200209	46.632231	32.611552	22.901916	5.352243	45.692223	31.678435	11.799887	-4.622506	60.954282	41.978558	6.008892	-10.489438	60.781179	42.270267
-1.345000	-2.172711	-3.701800	97.553456	-0.100698	-0.188656	-0.033390	86.103704	2.899603	-1.495311	12.601437	8.574660	-22.555681	-34.850527	39.146431	10.193094	46.618620	32.600513	22.911667	5.360919	45.684490	31.689307	11.808992	-4.623934	60.958425	41.991463	6.003710	-10.483319	60.808672	42.284119
